<svg width="16" height="16" viewBox="0 0 16 16" fill="none" xmlns="http://www.w3.org/2000/svg">
<path d="M15.4286 5.71428C15.4286 5.41117 15.3081 5.12048 15.0938 4.90615C14.8795 4.69183 14.5888 4.57142 14.2857 4.57142H12L10.2857 2.28571H5.71427L3.99998 4.57142H1.71427C1.41116 4.57142 1.12047 4.69183 0.906146 4.90615C0.691819 5.12048 0.571411 5.41117 0.571411 5.71428V12.5714C0.571411 12.8745 0.691819 13.1652 0.906146 13.3795C1.12047 13.5938 1.41116 13.7143 1.71427 13.7143H14.2857C14.5888 13.7143 14.8795 13.5938 15.0938 13.3795C15.3081 13.1652 15.4286 12.8745 15.4286 12.5714V5.71428Z" stroke="#0085FF" stroke-linecap="round" stroke-linejoin="round"/>
<path d="M7.99996 11.1429C9.42012 11.1429 10.5714 9.99159 10.5714 8.57143C10.5714 7.15127 9.42012 6 7.99996 6C6.5798 6 5.42853 7.15127 5.42853 8.57143C5.42853 9.99159 6.5798 11.1429 7.99996 11.1429Z" stroke="#0085FF" stroke-linecap="round" stroke-linejoin="round"/>
</svg>
