<svg width="40" height="40" viewBox="0 0 40 40" fill="none" xmlns="http://www.w3.org/2000/svg">
<rect x="9.17139" y="10.8572" width="21" height="18" fill="white"/>
<path fill-rule="evenodd" clip-rule="evenodd" d="M22.5284 3.35815C21.2267 2.0564 19.1161 2.0564 17.8144 3.35815L14.6485 6.52397H10.1714C8.33041 6.52397 6.83803 8.01635 6.83803 9.8573V14.3345L3.67223 17.5003C2.37049 18.802 2.37049 20.9126 3.67223 22.2143L6.83803 25.3801V29.8573C6.83803 31.6983 8.33041 33.1906 10.1714 33.1906H14.6485L17.8144 36.3565C19.1161 37.6582 21.2267 37.6582 22.5284 36.3565L25.6942 33.1906H30.1714C32.0123 33.1906 33.5047 31.6983 33.5047 29.8573V25.3802L36.6705 22.2143C37.9723 20.9126 37.9723 18.802 36.6705 17.5003L33.5047 14.3344V9.8573C33.5047 8.01636 32.0123 6.52397 30.1714 6.52397H25.6942L22.5284 3.35815Z" fill="#0085FF"/>
<g clip-path="url(#clip0_12_1048)">
<path d="M27.5366 27.4779V19.1323H12.463V27.4779C12.463 28.2669 13.1026 28.9065 13.8916 28.9065H26.108C26.897 28.9065 27.5366 28.2669 27.5366 27.4779Z" stroke="white" stroke-width="2" stroke-linecap="round" stroke-linejoin="round"/>
<path d="M20 28.9062V19.1294" stroke="white" stroke-width="2" stroke-linecap="round" stroke-linejoin="round"/>
<path d="M28.7684 16.8453V17.7036C28.7684 18.4926 28.1288 19.1322 27.3398 19.1322H12.6601C11.8711 19.1322 11.2315 18.4926 11.2315 17.7036V16.8453C11.2315 16.0563 11.8711 15.4167 12.6601 15.4167H27.3398C28.1288 15.4167 28.7684 16.0563 28.7684 16.8453Z" stroke="white" stroke-width="2" stroke-linecap="round" stroke-linejoin="round"/>
<path d="M20.0002 15.4167C20.0002 14.1667 18.5418 11.25 16.3543 11.25C12.7956 11.25 14.092 15.4167 15.7953 15.4167" stroke="white" stroke-width="2" stroke-linecap="round" stroke-linejoin="round"/>
<path d="M20 15.4167C20 14.1667 21.4583 11.25 23.6458 11.25C27.2046 11.25 25.9081 15.4167 24.2049 15.4167" stroke="white" stroke-width="2" stroke-linecap="round" stroke-linejoin="round"/>
</g>
<defs>
<clipPath id="clip0_12_1048">
<rect width="20" height="20" fill="white" transform="translate(10 10)"/>
</clipPath>
</defs>
</svg>
