<svg width="24" height="24" viewBox="0 0 24 24" fill="none" xmlns="http://www.w3.org/2000/svg">
<path d="M12 19.9591H23.1429" stroke="#8C8C8C" stroke-width="1.5" stroke-linecap="round" stroke-linejoin="round"/>
<path d="M19.959 16.7754L23.1428 19.9591L19.959 23.1427" stroke="#8C8C8C" stroke-width="1.5" stroke-linecap="round" stroke-linejoin="round"/>
<path d="M8.02112 5.63315C9.33997 5.63315 10.4091 4.564 10.4091 3.24515C10.4091 1.92629 9.33997 0.857147 8.02112 0.857147C6.70226 0.857147 5.63312 1.92629 5.63312 3.24515C5.63312 4.564 6.70226 5.63315 8.02112 5.63315Z" stroke="#8C8C8C" stroke-width="1.5" stroke-linecap="round" stroke-linejoin="round"/>
<path d="M14.388 13.5926C15.7069 13.5926 16.776 12.5234 16.776 11.2046C16.776 9.88572 15.7069 8.81657 14.388 8.81657C13.0691 8.81657 12 9.88572 12 11.2046C12 12.5234 13.0691 13.5926 14.388 13.5926Z" stroke="#8C8C8C" stroke-width="1.5" stroke-linecap="round" stroke-linejoin="round"/>
<path d="M9.612 22.3474C10.9309 22.3474 12 21.2783 12 19.9594C12 18.6406 10.9309 17.5714 9.612 17.5714C8.29314 17.5714 7.224 18.6406 7.224 19.9594C7.224 21.2783 8.29314 22.3474 9.612 22.3474Z" stroke="#8C8C8C" stroke-width="1.5" stroke-linecap="round" stroke-linejoin="round"/>
<path d="M12 11.2048H5.23468C2.81703 11.2048 0.857117 13.1647 0.857117 15.5824C0.857117 18 2.81703 19.96 5.23468 19.96H7.22449" stroke="#8C8C8C" stroke-width="1.5" stroke-linecap="round" stroke-linejoin="round"/>
<path d="M16.7755 11.2045H19.1633C21.3611 11.2045 23.1428 9.42275 23.1428 7.22486C23.1428 5.027 21.3611 3.24527 19.1633 3.24527H10.4081" stroke="#8C8C8C" stroke-width="1.5" stroke-linecap="round" stroke-linejoin="round"/>
<path d="M5.63265 3.24527H0.857117" stroke="#8C8C8C" stroke-width="1.5" stroke-linecap="round" stroke-linejoin="round"/>
</svg>
