<svg width="24" height="24" viewBox="0 0 24 24" fill="none" xmlns="http://www.w3.org/2000/svg">
<path d="M17.8937 13.7142C16.3694 13.7142 15.1336 12.4784 15.1336 10.954C15.1336 9.42967 16.3694 8.19392 17.8937 8.19392C19.4181 8.19392 20.6539 9.42967 20.6539 10.954C20.6539 12.4784 19.4181 13.7142 17.8937 13.7142Z" stroke="#8C8C8C" stroke-width="1.5" stroke-linecap="round" stroke-linejoin="round"/>
<path d="M13.8838 17.9745C14.264 17.5726 14.7039 17.2286 15.1901 16.9554C16.0157 16.4917 16.9467 16.2481 17.8937 16.2481C18.8407 16.2481 19.7717 16.4917 20.5973 16.9554C20.9544 17.1561 21.2866 17.3949 21.5885 17.6669" stroke="#8C8C8C" stroke-width="1.5" stroke-linecap="round" stroke-linejoin="round"/>
<path d="M8.9639 12.8285C7.07493 12.8285 5.54359 11.2971 5.54359 9.40818C5.54359 7.51919 7.07493 5.98787 8.9639 5.98787C10.8529 5.98787 12.3842 7.51919 12.3842 9.40818C12.3842 11.2971 10.8529 12.8285 8.9639 12.8285Z" stroke="#8C8C8C" stroke-width="1.5" stroke-linecap="round" stroke-linejoin="round"/>
<path d="M15.3712 22.5962C15.2006 20.5533 14.6916 19.2099 14.4125 18.737C13.8183 17.7267 12.9832 16.8917 11.9874 16.3123C10.9917 15.7329 9.86875 15.4286 8.72664 15.4286C7.58453 15.4286 6.46164 15.7329 5.46588 16.3123C4.67078 16.775 3.97809 17.4005 3.42868 18.1483L3.08037 18.6696" stroke="#8C8C8C" stroke-width="1.5" stroke-linecap="round" stroke-linejoin="round"/>
<path d="M12 23.1429C5.84597 23.1429 0.857143 18.1541 0.857143 12C0.857143 5.84598 5.84597 0.857147 12 0.857147C18.1541 0.857147 23.1429 5.84598 23.1429 12C23.1429 18.1541 18.1541 23.1429 12 23.1429Z" stroke="#8C8C8C" stroke-width="1.5" stroke-linecap="round" stroke-linejoin="round"/>
</svg>
