<svg width="24" height="24" viewBox="0 0 24 24" fill="none" xmlns="http://www.w3.org/2000/svg">
<path d="M9.76057 14.3669C9.18557 13.7929 8.83557 13.0129 8.83557 12.1379C8.83557 10.3849 10.2476 8.97192 11.9996 8.97192C12.8666 8.97192 13.6646 9.32292 14.2296 9.89692" stroke="#404040" stroke-width="1.5" stroke-linecap="round" stroke-linejoin="round"/>
<path d="M15.1047 12.6991C14.8727 13.9891 13.8567 15.0071 12.5677 15.2411" stroke="#404040" stroke-width="1.5" stroke-linecap="round" stroke-linejoin="round"/>
<path d="M6.65457 17.4725C5.06757 16.2265 3.72357 14.4065 2.74957 12.1375C3.73357 9.85847 5.08657 8.02847 6.68357 6.77247C8.27057 5.51647 10.1016 4.83447 11.9996 4.83447C13.9086 4.83447 15.7386 5.52647 17.3356 6.79147" stroke="#404040" stroke-width="1.5" stroke-linecap="round" stroke-linejoin="round"/>
<path d="M19.4476 8.99097C20.1356 9.90497 20.7406 10.96 21.2496 12.137C19.2826 16.694 15.8066 19.439 11.9996 19.439C11.1366 19.439 10.2856 19.299 9.46759 19.026" stroke="#404040" stroke-width="1.5" stroke-linecap="round" stroke-linejoin="round"/>
<path d="M19.887 4.24976L4.11298 20.0238" stroke="#404040" stroke-width="1.5" stroke-linecap="round" stroke-linejoin="round"/>
</svg>
