<svg width="56" height="52" viewBox="0 0 56 52" fill="none" xmlns="http://www.w3.org/2000/svg">
<path d="M9.55623 39.0218C5.51167 34.9672 6.56051 29.8597 9.41227 26.9812C12.3531 24.0206 17.6248 24.0069 20.5931 26.7965C23.5271 29.552 24.8159 34.8988 20.6342 39.0218C22.0875 39.4935 23.4585 40.0884 24.713 40.9157C27.7979 42.9532 29.6693 45.7429 30.0944 49.4556C30.1286 49.7769 30.204 50.0983 30.204 50.4265C30.1903 51.2743 29.5802 51.9307 28.7713 51.958C27.9487 51.9854 27.318 51.3974 27.2563 50.5222C27.0438 47.5821 25.7687 45.2301 23.3214 43.5413C21.8064 42.4951 20.1269 41.8319 18.3309 41.49C14.5125 40.7721 10.8381 41.1618 7.45169 43.1652C4.68219 44.8062 3.16034 47.2676 2.94098 50.5017C2.88613 51.3495 2.23489 51.9786 1.43284 51.9512C0.630779 51.9307 -0.0273186 51.2743 0.00695733 50.4196C0.144061 47.1309 1.39856 44.3481 3.86643 42.1328C5.50481 40.6696 7.42427 39.7055 9.56308 39.0218H9.55623ZM20.2983 32.8408C20.2229 29.6135 18.0704 27.5828 14.7525 27.7059C11.6882 27.8221 9.83729 30.099 9.85786 32.9638C9.88528 36.0407 12.1269 38.1534 15.1363 38.0919C18.2075 38.0303 20.36 35.8424 20.2914 32.8408H20.2983Z" fill="#0085FF"/>
<path d="M35.3455 39.0012C34.3926 37.9756 33.618 36.9432 33.1518 35.6988C31.3763 30.94 34.6668 25.3744 39.7054 24.7863C44.5657 24.2257 48.0687 27.2068 48.905 31.0494C49.522 33.8732 48.8091 36.3688 46.8759 38.5158C46.4303 39.0081 46.4234 38.9875 47.0473 39.2063C51.3523 40.7379 54.4166 43.4865 55.6642 47.9992C55.8836 48.7855 56.007 49.5855 56.0001 50.4059C55.9933 51.2675 55.3969 51.9102 54.5811 51.9444C53.7654 51.9785 53.1278 51.3837 53.0524 50.5153C52.8262 47.8556 51.7774 45.6061 49.6865 43.8968C48.055 42.5635 46.1492 41.784 44.0927 41.4353C40.1647 40.7721 36.408 41.237 32.9393 43.3361C32.1647 43.8079 31.2872 43.5959 30.8553 42.8848C30.4303 42.1806 30.6497 41.3054 31.4106 40.82C32.6034 40.061 33.8785 39.473 35.3386 39.0081L35.3455 39.0012ZM46.1013 33.1279C46.3206 30.3041 44.2846 27.9179 41.4603 27.6991C38.2041 27.4461 35.8596 29.3879 35.6745 32.6767C35.5374 35.1449 36.9427 37.8594 40.5965 38.0645C43.6677 38.2354 45.9299 36.2731 46.1013 33.1279Z" fill="#0085FF"/>
<path d="M30.2041 11.0843C30.2041 13.2654 30.2932 15.4534 30.1835 17.6345C30.0327 20.6771 27.5237 22.6599 24.5966 22.4959C21.9025 22.3454 20.0516 20.6976 19.5443 18.2157C18.7285 14.2158 22.6634 10.7766 26.564 12.0689C27.0484 12.2284 27.2884 12.0484 27.2838 11.5287C27.2838 8.30148 27.3181 5.08108 27.2632 1.85385C27.2358 0.294928 28.5588 -0.368296 29.7791 0.31544C31.6985 1.38891 33.7139 2.29828 35.6745 3.29653C36.3532 3.64524 36.6137 4.21274 36.4697 4.91699C36.3463 5.52551 35.8391 5.98361 35.1947 6.06566C34.8382 6.11352 34.5091 5.99729 34.1938 5.84003C33.0627 5.27937 31.911 4.73921 30.8005 4.14436C30.3275 3.89138 30.2247 3.95292 30.2315 4.47256C30.2521 6.67419 30.2384 8.88266 30.2384 11.0843C30.2247 11.0843 30.2109 11.0843 30.1972 11.0843H30.2041ZM27.2564 17.1832C27.2564 15.7952 26.1938 14.7081 24.8365 14.7149C23.5066 14.7149 22.4577 15.7884 22.444 17.149C22.4303 18.5233 23.5134 19.631 24.8502 19.6242C26.1664 19.6173 27.2427 18.5233 27.2495 17.1901L27.2564 17.1832Z" fill="#0085FF"/>
</svg>
