<svg width="23" height="24" viewBox="0 0 23 24" fill="none" xmlns="http://www.w3.org/2000/svg">
<path d="M8.46578 3.85715L9.20292 1.95429C9.32724 1.63211 9.54597 1.35499 9.83044 1.15922C10.1149 0.963457 10.4519 0.858167 10.7972 0.857147H12.2029C12.5482 0.858167 12.8852 0.963457 13.1697 1.15922C13.4542 1.35499 13.6729 1.63211 13.7972 1.95429L14.5344 3.85715L17.0371 5.29715L19.06 4.98858C19.3969 4.94286 19.7397 4.9983 20.045 5.14787C20.3502 5.29744 20.6041 5.53437 20.7743 5.82858L21.46 7.02858C21.6357 7.32746 21.7168 7.6726 21.6923 8.01844C21.6678 8.36428 21.539 8.69457 21.3229 8.96572L20.0714 10.56V13.44L21.3571 15.0343C21.5733 15.3054 21.7021 15.6357 21.7266 15.9816C21.7511 16.3274 21.67 16.6725 21.4943 16.9714L20.8086 18.1714C20.6383 18.4656 20.3845 18.7025 20.0793 18.8522C19.774 19.0017 19.4311 19.0572 19.0943 19.0114L17.0714 18.7029L14.5686 20.1429L13.8315 22.0457C13.7072 22.3678 13.4885 22.645 13.204 22.8408C12.9195 23.0366 12.5825 23.1418 12.2372 23.1429H10.7972C10.4519 23.1418 10.1149 23.0366 9.83044 22.8408C9.54597 22.645 9.32724 22.3678 9.20292 22.0457L8.46578 20.1429L5.96292 18.7029L3.94007 19.0114C3.60324 19.0572 3.26042 19.0017 2.95517 18.8522C2.64995 18.7025 2.39606 18.4656 2.22578 18.1714L1.54007 16.9714C1.36435 16.6725 1.2834 16.3274 1.30788 15.9816C1.33236 15.6357 1.46114 15.3054 1.67721 15.0343L2.92864 13.44V10.56L1.64292 8.96572C1.42685 8.69457 1.29808 8.36428 1.2736 8.01844C1.24912 7.6726 1.33007 7.32746 1.50578 7.02858L2.19149 5.82858C2.36177 5.53437 2.61566 5.29744 2.92089 5.14787C3.22613 4.9983 3.56896 4.94286 3.90578 4.98858L5.92864 5.29715L8.46578 3.85715ZM8.07149 12C8.07149 12.6781 8.27258 13.341 8.64931 13.9048C9.02606 14.4686 9.56152 14.9081 10.188 15.1676C10.8145 15.4271 11.5039 15.495 12.1689 15.3627C12.834 15.2304 13.4449 14.9039 13.9244 14.4244C14.4039 13.9449 14.7305 13.334 14.8628 12.6689C14.995 12.0038 14.9272 11.3144 14.6677 10.6879C14.4082 10.0615 13.9687 9.52598 13.4049 9.14925C12.841 8.77252 12.1782 8.57143 11.5001 8.57143C10.5908 8.57143 9.71868 8.93265 9.07571 9.57564C8.43273 10.2186 8.07149 11.0907 8.07149 12Z" stroke="#8C8C8C" stroke-width="1.5" stroke-linecap="round" stroke-linejoin="round"/>
</svg>
