<svg width="24" height="24" viewBox="0 0 24 24" fill="none" xmlns="http://www.w3.org/2000/svg">
<path fill-rule="evenodd" clip-rule="evenodd" d="M24 12C24 5.37259 18.6274 0 12 0C5.37259 0 0 5.37259 0 12C0 14.3201 0.658406 16.4863 1.79856 18.3221C1.85889 18.4193 1.9206 18.5155 1.9836 18.6108C1.98355 18.6108 1.98365 18.6108 1.9836 18.6108C4.1311 21.8582 7.81533 24 12 24C18.6274 24 24 18.6274 24 12ZM12 21.4286C12.9427 21.4286 13.853 21.2902 14.7119 21.0327C13.9694 17.6662 11.6983 14.8929 7.83521 14.8929C6.2136 14.8929 4.81531 15.4513 3.64176 16.3673C5.21695 19.3757 8.36875 21.4286 12 21.4286ZM16.4462 20.3165C18.1749 19.3905 19.5811 17.9412 20.4535 16.1804C20.3736 16.1308 20.2925 16.0828 20.2102 16.0366C19.2504 15.4975 18.1682 15.2143 17.0673 15.2143C16.0594 15.2143 15.067 15.4517 14.17 15.9055C14.2514 15.9952 14.3309 16.0866 14.4086 16.1797C15.4079 17.3775 16.0707 18.816 16.4462 20.3165ZM8.10703 5.55939C10.2327 5.55939 11.9559 7.28259 11.9559 9.40827C11.9559 11.534 10.2327 13.2572 8.10703 13.2572C5.98137 13.2572 4.25815 11.534 4.25815 9.40827C4.25815 7.28259 5.98137 5.55939 8.10703 5.55939ZM20.2251 10.5256C20.2251 8.76451 18.7975 7.33689 17.0365 7.33689C15.2754 7.33689 13.8478 8.76451 13.8478 10.5256C13.8478 12.2866 15.2754 13.7143 17.0365 13.7143C18.7975 13.7143 20.2251 12.2866 20.2251 10.5256Z" fill="#0085FF"/>
</svg>
