<svg width="55" height="55" viewBox="0 0 55 55" fill="none" xmlns="http://www.w3.org/2000/svg">
<path d="M4.18484 32.2188C4.61308 31.1152 5.12367 30.0776 6.04602 29.4023C6.75425 28.8752 6.88602 28.4799 6.55661 27.607C5.81543 25.6964 7.13308 23.4729 9.12602 22.9788C11.2343 22.4517 13.3095 23.8188 13.7048 25.927C13.8695 26.7999 13.6884 27.5576 13.326 28.3152C13.2272 28.5294 13.1448 28.6611 13.3919 28.8258C14.6107 29.6494 15.4343 30.7858 15.9448 32.2517C16.6695 31.3458 17.0484 30.3905 17.2954 29.3364C18.2178 25.2517 15.4343 20.9529 10.806 20.4258C7.85778 20.0799 4.95896 21.6611 3.54249 24.3623C3.24602 24.9058 2.90014 25.3341 2.24131 25.3341C1.31896 25.3341 0.791901 24.3623 1.22014 23.4894C2.4719 20.9035 4.49778 19.1741 7.2319 18.367C10.279 17.4611 13.1613 17.9388 15.7801 19.767C16.0272 19.9482 16.1754 19.9647 16.406 19.7341C17.3448 18.7623 18.3001 17.8235 19.2719 16.8682C19.486 16.6541 19.5354 16.5058 19.3378 16.2423C18.4484 15.007 17.8719 13.6399 17.6413 12.1247C17.5919 11.7952 17.4437 11.7294 17.1472 11.7294C15.286 11.7294 13.4084 11.7294 11.5472 11.7294C11.2672 11.7294 11.1025 11.8117 10.9707 12.0752C10.1472 13.6894 8.59896 14.4635 6.85308 14.1341C5.30484 13.8541 4.10249 12.4541 3.92131 10.7576C3.75661 9.15995 4.90955 7.47995 6.54014 6.96936C8.20367 6.45877 10.0319 7.15054 10.839 8.6823C11.1025 9.17642 11.3825 9.29171 11.9095 9.29171C13.6225 9.25877 15.3354 9.25877 17.0484 9.29171C17.4601 9.29171 17.6084 9.17642 17.6743 8.76465C18.2013 5.00936 21.5119 1.59995 25.2837 0.858772C27.4413 0.430536 29.5166 0.644654 31.526 1.56701C32.3825 1.9623 32.5801 2.85171 32.0201 3.51054C31.6578 3.93877 31.0978 4.07054 30.5048 3.79054C29.2695 3.23054 27.9684 3.06583 26.6343 3.14818C23.5048 3.34583 20.5237 6.17877 20.0954 9.27524C19.8484 11.0541 20.1613 12.7011 21.0343 14.2658C21.1495 14.4799 21.2484 14.7105 21.5448 14.8588C21.9566 13.8376 22.4178 12.8329 23.2907 12.1905C24.0813 11.6141 24.2295 11.1529 23.8672 10.1811C23.2743 8.66583 24.0648 6.96936 25.4648 6.11289C26.8648 5.25642 28.6437 5.40465 29.846 6.49171C31.0813 7.59524 31.4601 9.39054 30.719 10.8564C30.5213 11.2352 30.5378 11.3999 30.9001 11.6635C31.8884 12.3552 32.5801 13.2776 33.0578 14.3976C33.1237 14.5458 33.1072 14.7929 33.3048 14.8094C33.486 14.8258 33.5519 14.5952 33.6343 14.4635C35.2484 11.9764 35.166 8.64936 33.4366 6.22818C33.3213 6.06348 33.1731 5.89877 33.0578 5.7176C32.646 5.12465 32.7284 4.41642 33.239 4.00465C33.7495 3.59289 34.4743 3.62583 34.9354 4.16936C36.5331 6.04701 37.2907 8.22113 37.2578 10.6917C37.2248 12.7176 36.6154 14.5458 35.446 16.1764C35.2484 16.4399 35.2484 16.6047 35.4954 16.8517C36.4672 17.7905 37.4225 18.7458 38.3613 19.7011C38.5754 19.9152 38.7072 19.8988 38.9378 19.7341C40.1731 18.8611 41.5401 18.2517 43.039 18.0376C43.3354 17.9882 43.4672 17.8729 43.4507 17.5435C43.4507 15.6823 43.4343 13.8047 43.4507 11.9435C43.4507 11.5647 43.2531 11.4658 42.9895 11.3176C41.6225 10.5764 40.9143 9.42348 40.9801 7.89171C41.046 6.32701 41.8531 5.20701 43.3025 4.5976C45.0978 3.83995 47.206 4.69642 48.046 6.50818C48.8531 8.25407 48.1284 10.4117 46.3825 11.3011C45.9872 11.4988 45.8719 11.7129 45.8884 12.1411C45.9048 13.9199 45.9048 15.6823 45.8884 17.4611C45.8884 17.8399 45.9872 18.0047 46.366 18.0705C50.566 18.8447 53.7448 22.007 54.4201 26.1247C55.2601 31.2964 52.0319 36.1388 46.9754 37.3576C44.1425 38.0494 41.4743 37.5388 39.0695 35.8752C38.7401 35.6447 38.559 35.5952 38.2625 35.9247C37.3566 36.8799 36.4343 37.8023 35.4954 38.7082C35.2648 38.9388 35.2648 39.087 35.446 39.3341C36.3025 40.5529 36.9119 41.9035 37.126 43.3858C37.1754 43.7152 37.3237 43.8305 37.6695 43.8305C39.4648 43.8141 41.2601 43.7976 43.039 43.8305C43.5001 43.8305 43.6978 43.6658 43.9119 43.287C44.719 41.7882 46.4484 41.047 48.079 41.4588C49.6931 41.8705 50.879 43.4023 50.879 45.0658C50.879 46.7129 49.7425 48.1623 48.0954 48.6235C46.5307 49.0517 44.8178 48.3929 44.0272 46.9599C43.7143 46.3999 43.3684 46.2682 42.7754 46.2847C41.079 46.3176 39.3825 46.3011 37.686 46.2847C37.3237 46.2847 37.1754 46.3999 37.1096 46.7458C36.286 51.0447 33.2554 54.0917 28.9237 54.7999C23.9495 55.6235 19.0907 52.4776 17.8225 47.4047C17.1143 44.5223 17.6413 41.8047 19.3543 39.3505C19.519 39.1035 19.5684 38.9552 19.3213 38.7247C18.3495 37.7858 17.3943 36.8305 16.4554 35.8588C16.2248 35.6282 16.0601 35.6282 15.8131 35.8094C14.5778 36.6988 13.2107 37.2752 11.6954 37.5058C11.399 37.5552 11.3166 37.687 11.3166 37.967C11.3166 39.8611 11.3166 41.7388 11.3166 43.6329C11.3166 44.0282 11.5307 44.1105 11.7943 44.2423C13.1119 44.9341 13.9519 46.3999 13.8037 47.7341C13.639 49.3647 12.6672 50.5835 11.1684 51.0447C9.32367 51.6211 7.42955 50.6988 6.6719 48.9035C5.9472 47.1741 6.6719 45.1152 8.3519 44.2752C8.78014 44.0611 8.86249 43.8141 8.86249 43.4023C8.84602 41.6235 8.84602 39.8611 8.86249 38.0823C8.86249 37.7035 8.76367 37.5552 8.36837 37.4894C5.12367 36.8799 2.78484 35.0682 1.25308 32.1694C0.874254 31.4447 1.08837 30.7199 1.73072 30.3905C2.35661 30.0611 3.01543 30.3082 3.41072 31.0164C3.64131 31.4117 3.82249 31.8399 4.20131 32.2023L4.18484 32.2188ZM50.5001 32.2517C51.8013 30.4235 52.2131 28.4635 51.8343 26.3223C50.9778 21.4964 45.1637 18.8282 40.9472 21.3647C38.559 22.7976 37.3237 24.9223 37.1754 27.7058C37.126 28.5458 36.5825 29.0729 35.8907 29.0235C35.1825 28.9741 34.6884 28.3976 34.7213 27.5741C34.7872 25.6305 35.3307 23.8188 36.4672 22.2376C36.7637 21.8258 36.6978 21.6117 36.3684 21.2988C35.4954 20.4588 34.6225 19.6023 33.799 18.7294C33.486 18.3835 33.2719 18.4 32.8931 18.6635C31.246 19.8164 29.3848 20.4094 27.3754 20.4094C25.2672 20.4094 23.3237 19.8164 21.6107 18.5647C21.3307 18.367 21.1825 18.3835 20.9519 18.6305C20.0625 19.5364 19.1731 20.4423 18.2507 21.3317C17.9213 21.6447 17.8884 21.8588 18.1684 22.2541C19.2719 23.8023 19.8319 25.5647 19.8978 27.4752C19.9801 29.6988 19.3543 31.7247 18.0695 33.5364C17.8719 33.8164 17.8884 33.9811 18.1354 34.2117C19.0578 35.1011 19.9801 36.0235 20.8695 36.9458C21.1166 37.2094 21.2978 37.2752 21.6437 37.0447C25.1684 34.6235 29.3848 34.6235 32.9754 37.0447C33.2225 37.2094 33.4201 37.2752 33.6672 37.0117C34.606 36.0399 35.5613 35.1011 36.5166 34.1623C36.7143 33.9647 36.7307 33.8329 36.566 33.5858C36.2531 33.1247 35.9566 32.647 35.7095 32.1529C35.3637 31.4611 35.6107 30.7364 36.2366 30.4399C36.8625 30.127 37.5048 30.3576 37.8837 31.0329C38.1143 31.4447 38.3284 31.8729 38.6743 32.2682C38.7401 32.1199 38.806 32.0047 38.8554 31.8729C39.3331 30.687 40.0743 29.6823 41.1284 28.9576C41.4413 28.7435 41.4413 28.6117 41.2766 28.2823C40.0578 25.7952 41.7707 22.9294 44.4884 22.8799C47.2719 22.8305 49.1001 25.7294 47.8648 28.2494C47.7001 28.5788 47.6837 28.7599 48.0295 28.9741C48.639 29.3529 49.1001 29.8964 49.5284 30.4729C49.9237 31.0164 50.1707 31.6423 50.4837 32.3011L50.5001 32.2517ZM33.1731 49.447C35.166 47.207 35.4954 42.6941 32.4978 39.7623C29.4507 36.7811 24.6907 36.9623 21.7919 40.1247C19.1237 43.0729 19.5848 47.3717 21.4625 49.4141C21.9237 48.0964 22.6813 47.0094 23.8013 46.2023C24.1307 45.9717 24.1966 45.8235 24.0154 45.4282C23.3731 44.1435 23.4719 42.8588 24.2954 41.6729C25.4154 40.0752 27.5237 39.6305 29.2037 40.6188C30.8507 41.5905 31.4766 43.6988 30.6201 45.4447C30.4884 45.6917 30.3731 45.8894 30.7025 46.1035C31.8719 46.9105 32.679 48.0141 33.1731 49.4141V49.447ZM10.1801 35.1999C10.5095 35.2329 10.9707 35.1176 11.4484 35.0517C11.8766 34.9858 12.3048 34.8541 12.7166 34.6894C13.8366 34.2611 13.9025 34.1294 13.5731 32.9764C13.0954 31.3129 11.4648 30.1105 9.88367 30.2423C8.0719 30.3905 6.58955 31.8399 6.40837 33.6188C6.35896 34.0141 6.44131 34.2776 6.86955 34.4588C7.89072 34.9035 8.92837 35.167 10.1966 35.1999H10.1801ZM27.326 52.4282C28.3143 52.4776 29.2531 52.2635 30.1754 51.8847C31.1143 51.5058 31.1307 51.4564 30.9001 50.5011C30.3895 48.3435 28.2484 47.0423 26.2554 47.7011C24.7731 48.1952 23.8507 49.4635 23.6201 51.1764C23.5707 51.4894 23.7684 51.5717 23.9825 51.6705C25.0366 52.1647 26.1237 52.4776 27.326 52.4282ZM44.6366 35.1999C45.7072 35.167 46.7613 34.9199 47.766 34.4752C48.1613 34.2941 48.2931 34.0635 48.2437 33.6352C48.046 31.7905 46.3495 30.2094 44.5543 30.2423C42.6766 30.2752 41.0295 31.9223 40.9307 33.8329C40.9307 34.1294 41.0131 34.2776 41.2766 34.4094C42.3307 34.9199 43.4343 35.1835 44.6531 35.1999H44.6366ZM27.2601 17.9058C28.2484 17.9058 29.2037 17.7247 30.1095 17.3623C31.0813 16.967 31.1143 16.9011 30.8672 15.8964C30.3566 13.8211 28.2648 12.5364 26.3378 13.1294C24.6743 13.6399 23.8178 14.9905 23.6037 16.6376C23.5707 16.9505 23.7848 17.0329 23.9825 17.1317C25.0201 17.6423 26.1072 17.9058 27.2437 17.9058H27.2601ZM47.0413 43.847C46.3825 43.847 45.8225 44.3905 45.806 45.0494C45.806 45.7082 46.399 46.3011 47.0578 46.3011C47.7495 46.3011 48.2766 45.7411 48.2601 45.0329C48.2601 44.3411 47.7331 43.8635 47.0248 43.8635L47.0413 43.847ZM45.806 8.03995C45.806 7.36465 45.3119 6.85407 44.6201 6.82112C43.9284 6.80465 43.3848 7.33171 43.3848 8.03995C43.3848 8.71524 43.9119 9.25877 44.5707 9.27524C45.2295 9.29171 45.806 8.73171 45.806 8.02348V8.03995ZM27.359 45.0329C28.0343 45.0329 28.5613 44.4894 28.5613 43.8141C28.5613 43.1388 27.9848 42.5788 27.2931 42.5952C26.6343 42.5952 26.0907 43.1552 26.0907 43.8305C26.0907 44.5223 26.6343 45.0494 27.359 45.0494V45.0329ZM11.2672 47.5199C11.2672 46.8447 10.7566 46.3011 10.0813 46.2847C9.40602 46.2682 8.82955 46.8282 8.82955 47.5199C8.82955 48.2117 9.35661 48.7388 10.0813 48.7223C10.7731 48.7223 11.2672 48.2117 11.2672 47.5199ZM10.0813 25.3341C9.38955 25.3341 8.82955 25.8776 8.82955 26.5529C8.82955 27.1952 9.40602 27.7717 10.0484 27.7882C10.7237 27.7882 11.2672 27.2282 11.2837 26.5364C11.2837 25.8447 10.7895 25.3505 10.0978 25.3341H10.0813ZM44.5707 25.3341C43.8954 25.3341 43.3848 25.8611 43.3848 26.5529C43.3848 27.2282 43.9613 27.8047 44.6366 27.7882C45.3119 27.7717 45.839 27.1788 45.8225 26.487C45.806 25.8282 45.2625 25.3341 44.5707 25.3341ZM6.40837 10.4941C6.40837 11.2188 6.90249 11.7458 7.61072 11.7458C8.26955 11.7458 8.86249 11.1694 8.84602 10.4941C8.84602 9.85171 8.28602 9.30818 7.61072 9.30818C6.91896 9.30818 6.40837 9.8023 6.40837 10.4941ZM27.3095 10.4941C28.0013 10.4941 28.5778 9.95054 28.5778 9.29171C28.5778 8.64936 27.9519 8.03995 27.3095 8.05642C26.6672 8.05642 26.1237 8.63289 26.1237 9.29171C26.1237 9.96701 26.6343 10.4941 27.3095 10.4941Z" fill="#0085FF"/>
<path d="M1.2366 28.9411C0.610722 28.9411 0.017781 28.3811 0.00131039 27.7388C-0.0316308 27.0799 0.56131 26.4705 1.2366 26.4705C1.89543 26.4705 2.45543 27.014 2.48837 27.6729C2.52131 28.2988 1.89543 28.9411 1.25308 28.9576L1.2366 28.9411Z" fill="#0085FF"/>
</svg>
