<svg width="24" height="24" viewBox="0 0 24 24" fill="none" xmlns="http://www.w3.org/2000/svg">
<path d="M2.57143 3.42857C2.11677 3.42857 1.68074 3.60919 1.35925 3.93067C1.03776 4.25217 0.857143 4.6882 0.857143 5.14286V21.4286C0.857143 21.8832 1.03776 22.3193 1.35925 22.6407C1.68074 22.9622 2.11677 23.1429 2.57143 23.1429H21.4286C21.8832 23.1429 22.3193 22.9622 22.6407 22.6407C22.9622 22.3193 23.1429 21.8832 23.1429 21.4286V5.14286C23.1429 4.6882 22.9622 4.25217 22.6407 3.93067C22.3193 3.60919 21.8832 3.42857 21.4286 3.42857H18" stroke="#8C8C8C" stroke-width="1.5" stroke-linecap="round" stroke-linejoin="round"/>
<path d="M6 0.857147V6" stroke="#8C8C8C" stroke-width="1.5" stroke-linecap="round" stroke-linejoin="round"/>
<path d="M18 0.857147V6" stroke="#8C8C8C" stroke-width="1.5" stroke-linecap="round" stroke-linejoin="round"/>
<path d="M6 3.42857H14.5714" stroke="#8C8C8C" stroke-width="1.5" stroke-linecap="round" stroke-linejoin="round"/>
<path d="M12.4264 7.97557L13.8606 10.8606C13.8926 10.9336 13.9435 10.9968 14.008 11.0436C14.0724 11.0905 14.1482 11.1195 14.2275 11.1275L17.4127 11.6111C17.5037 11.6229 17.5896 11.6605 17.6601 11.7193C17.7307 11.7781 17.783 11.8558 17.8109 11.9433C17.8389 12.0307 17.8414 12.1244 17.8181 12.2132C17.795 12.302 17.7468 12.3824 17.6796 12.4449L15.3281 14.6796C15.2931 14.7465 15.2748 14.8209 15.2748 14.8964C15.2748 14.9719 15.2931 15.0463 15.3281 15.1132L15.7784 18.2818C15.7976 18.3734 15.7898 18.4685 15.756 18.5558C15.7222 18.643 15.6638 18.7186 15.5879 18.7733C15.512 18.828 15.4218 18.8596 15.3284 18.8642C15.2349 18.8686 15.1421 18.8458 15.0613 18.7987L12.2263 17.2978C12.1529 17.2648 12.0733 17.2476 11.9928 17.2476C11.9123 17.2476 11.8327 17.2648 11.7593 17.2978L8.92427 18.7987C8.84345 18.8458 8.75068 18.8686 8.65721 18.8642C8.56373 18.8596 8.47358 18.828 8.39767 18.7733C8.32176 18.7186 8.26336 18.643 8.22955 18.5558C8.19573 18.4685 8.18796 18.3734 8.20718 18.2818L8.74082 15.1132C8.76377 15.0397 8.76816 14.9616 8.75362 14.8859C8.73907 14.8103 8.70604 14.7394 8.65744 14.6796L6.30602 12.4283C6.24365 12.3651 6.19987 12.2859 6.17949 12.1995C6.15911 12.1131 6.16291 12.0228 6.19046 11.9384C6.21803 11.854 6.26827 11.7788 6.33573 11.7211C6.40318 11.6633 6.48521 11.6253 6.57285 11.6111L9.75811 11.1441C9.8374 11.1361 9.91315 11.1072 9.97761 11.0603C10.0421 11.0134 10.0929 10.9503 10.125 10.8773L11.5592 7.99225C11.5976 7.91058 11.658 7.84128 11.7337 7.79216C11.8094 7.74306 11.8974 7.71611 11.9876 7.71438C12.0778 7.71265 12.1667 7.73619 12.2443 7.78235C12.3218 7.8285 12.3849 7.89543 12.4264 7.97557Z" stroke="#8C8C8C" stroke-width="1.5" stroke-linecap="round" stroke-linejoin="round"/>
</svg>
