<svg width="48" height="48" viewBox="0 0 48 48" fill="none" xmlns="http://www.w3.org/2000/svg">
<path d="M48 46.6946C47.7119 47.2681 47.3375 47.7359 46.68 47.917C45.8383 48.1484 45.1257 47.8944 44.6636 47.1461C43.6441 45.4948 42.6246 43.8435 41.6277 42.1784C41.4273 41.8452 41.2157 41.7131 40.8174 41.7131C33.8014 41.7269 26.7866 41.7257 19.7706 41.7232C18.0147 41.7232 16.7773 40.8768 16.2889 39.3588C16.1687 38.9841 16.1223 38.5992 16.1223 38.2043C16.1261 33.7322 16.1173 29.2613 16.1361 24.7892C16.1373 24.3477 16.0121 24.2446 15.5951 24.2471C12.7671 24.2635 9.93915 24.2622 7.1112 24.2522C6.77806 24.2522 6.58519 24.3528 6.40735 24.6508C5.41168 26.3172 4.39096 27.9685 3.37275 29.621C2.91061 30.3718 2.15666 30.6736 1.37014 30.4422C0.477171 30.1781 0.00626359 29.5732 0.00626359 28.6551C0.00250635 20.2454 -0.00125089 11.8356 1.52329e-06 3.4258C0.00125394 1.51923 1.52544 0.00378212 3.43412 0.00252449C11.7464 -0.0012484 20.0587 -0.0012484 28.3709 0.00252449C30.4124 0.00252449 31.8702 1.4815 31.8714 3.53395C31.8739 9.22976 31.8414 14.9256 31.8927 20.6201C31.909 22.3406 30.7054 24.2861 28.2357 24.2685C24.9543 24.2446 21.673 24.2559 18.3917 24.2509C18.2201 24.2509 18.046 24.2685 17.877 24.2509C17.619 24.222 17.5238 24.3 17.5238 24.5804C17.5325 29.1934 17.5238 33.8064 17.535 38.4181C17.5375 39.433 18.3729 40.2782 19.3798 40.2958C20.7074 40.3197 22.0362 40.3071 23.3638 40.3071C29.3478 40.3083 35.3318 40.3146 41.3159 40.3008C41.8807 40.2995 42.2401 40.4819 42.5332 40.9736C43.5339 42.6551 44.5696 44.3152 45.5929 45.9828C45.683 46.1299 45.7694 46.2796 45.8747 46.4154C45.9723 46.5437 46.1038 46.6342 46.2792 46.5889C46.4495 46.5437 46.5372 46.4078 46.5697 46.2519C46.5985 46.1161 46.5898 45.9715 46.5898 45.8306C46.5898 37.578 46.5898 29.3254 46.5898 21.0716C46.5898 19.7322 45.7707 18.9186 44.4244 18.9186C41.1593 18.9186 37.893 18.9186 34.628 18.916C33.9529 18.916 33.576 18.413 33.8465 17.8936C33.9817 17.632 34.1997 17.5138 34.4915 17.5138C37.9607 17.515 41.4286 17.4974 44.8978 17.5238C46.2692 17.5339 47.5516 18.6796 47.8948 20.0869C47.9161 20.1762 47.9036 20.2768 47.9962 20.3359V46.6946H48ZM1.40646 15.9065C1.40646 20.0466 1.40646 24.1868 1.40771 28.3269C1.40771 28.6136 1.3213 28.9658 1.70704 29.079C2.0765 29.1871 2.17795 28.8501 2.31947 28.6212C3.36148 26.9297 4.42102 25.2482 5.42546 23.5353C5.73856 23.0008 6.11303 22.826 6.70918 22.8285C13.0652 22.8449 19.4224 22.8386 25.7784 22.8386C26.6213 22.8386 27.4654 22.8461 28.3083 22.8336C29.6947 22.8122 30.4687 22.0161 30.4687 20.6252C30.4687 14.9797 30.4687 9.33289 30.4687 3.68738C30.4687 2.21973 29.6759 1.41987 28.2206 1.41987C20.0211 1.41987 11.8215 1.41987 3.62198 1.41987C2.22178 1.41987 1.40521 2.2323 1.40521 3.62702C1.40521 7.72061 1.40521 11.8129 1.40521 15.9065H1.40646Z" fill="#252525"/>
<path d="M31.6848 30.2272C31.7073 32.6531 29.6684 34.7144 27.23 34.7307C24.7865 34.7471 22.7125 32.6896 22.7025 30.2372C22.6925 27.8113 24.7427 25.7236 27.1486 25.7098C29.6396 25.6959 31.661 27.7081 31.6848 30.2272ZM30.2808 30.2234C30.2771 28.5193 28.8694 27.1095 27.1811 27.1196C25.5217 27.1296 24.1177 28.5482 24.114 30.2196C24.1102 31.8772 25.5279 33.3121 27.1774 33.3209C28.8644 33.3297 30.2846 31.9137 30.2808 30.2234Z" fill="#252525"/>
<path d="M35.3193 28.6451C36.3025 27.7396 37.1742 26.9359 38.0458 26.1323C38.2562 25.9386 38.4754 25.7588 38.791 25.8255C39.0803 25.8871 39.2532 26.0845 39.3383 26.3524C39.4373 26.6618 39.2857 26.9032 39.0716 27.1032C38.4191 27.7119 37.7615 28.3143 37.1065 28.918C36.7847 29.2148 36.4791 29.5342 36.1359 29.8021C35.8641 30.0134 35.928 30.1354 36.1409 30.3378C37.2055 31.3527 38.255 32.3827 39.312 33.4065C39.5938 33.6794 39.7654 33.9736 39.5199 34.3585C39.2344 34.8062 38.7935 34.8515 38.379 34.4541C37.4296 33.546 36.4891 32.628 35.5448 31.7137C35.4922 31.6634 35.4358 31.6168 35.3093 31.5049C35.3093 32.1903 35.3131 32.7927 35.3081 33.3951C35.3056 33.6605 35.3431 33.9259 35.268 34.19C35.1678 34.5396 34.9261 34.7244 34.5854 34.7207C34.241 34.7169 33.9993 34.5182 33.9279 34.1648C33.8966 34.0126 33.8903 33.8542 33.8903 33.6982C33.8866 31.4081 33.8841 29.1179 33.8828 26.8278C33.8828 26.087 34.1283 25.7047 34.5954 25.7123C35.0751 25.7198 35.3181 26.0896 35.3206 26.8253C35.3231 27.3837 35.3206 27.942 35.3206 28.6451H35.3193Z" fill="#252525"/>
<path d="M18.4894 16.5655C19.3034 16.5655 19.986 16.5466 20.6673 16.5693C21.8534 16.6083 22.7952 17.6307 22.7739 18.828C22.7538 19.99 21.782 20.9848 20.616 20.9924C18.4455 21.0075 16.2739 20.9999 14.1034 20.9999C13.5148 20.9999 13.2105 20.7484 13.2217 20.2831C13.233 19.8291 13.5474 19.5876 14.141 19.5876C16.2488 19.5863 18.3579 19.5901 20.4657 19.5863C21.1457 19.5851 21.5553 18.9676 21.2547 18.4054C21.0931 18.1023 20.8264 17.9728 20.4832 17.9728C16.7661 17.9753 13.0489 17.9728 9.33173 17.9766C8.8007 17.9766 8.42874 18.3325 8.43876 18.7928C8.44877 19.2606 8.81198 19.5788 9.35302 19.5851C9.7588 19.5901 10.1658 19.575 10.5716 19.5926C11.0275 19.6128 11.3431 19.9234 11.3381 20.317C11.3331 20.7056 11.0087 20.9924 10.5453 20.9999C10.0769 21.0075 9.60851 21.0112 9.14011 20.9974C7.98413 20.966 7.03981 19.9699 7.03605 18.789C7.0323 17.598 7.94781 16.612 9.12132 16.568C9.71371 16.5454 10.3074 16.5592 10.901 16.5529C10.9887 16.5529 11.1014 16.5957 11.1427 16.4787C11.1728 16.3957 11.0939 16.3417 11.0413 16.2851C9.94917 15.084 9.54339 13.6528 9.601 12.0506C9.63481 11.1426 9.60601 10.2321 9.60851 9.32156C9.61227 8.03375 10.2936 7.34834 11.5723 7.34708C13.8053 7.34708 16.0384 7.35337 18.2727 7.34456C18.964 7.34205 19.5289 7.57094 19.9008 8.1658C20.0248 8.3645 20.1739 8.37582 20.3667 8.38337C20.9253 8.406 21.4864 8.31671 22.04 8.48272C23.1709 8.82102 23.9537 9.99439 23.8046 11.1564C23.6531 12.3449 22.6562 13.2969 21.4839 13.3598C21.1257 13.3787 20.765 13.3749 20.4068 13.3636C20.2152 13.3573 20.1112 13.434 20.0812 13.6164C19.8971 14.7344 19.351 15.6625 18.4894 16.5655ZM14.915 8.75814C13.8066 8.75814 12.697 8.76694 11.5886 8.75311C11.1941 8.74808 11.02 8.89271 11.0262 9.3027C11.045 10.4937 11.015 11.6872 11.0576 12.8781C11.1314 14.9319 12.8986 16.5907 14.9275 16.5555C17.0366 16.519 18.7311 14.825 18.7511 12.7235C18.7611 11.6255 18.7561 10.5276 18.7536 9.42972C18.7536 8.78581 18.7248 8.75814 18.1011 8.75814C17.0391 8.75814 15.977 8.75814 14.915 8.75814ZM20.1701 10.8194C20.1718 11.6151 20.5367 11.9944 21.2647 11.9576C21.9335 11.9236 22.4182 11.452 22.4069 10.8446C22.3957 10.2321 21.9122 9.80323 21.2196 9.79066C20.5191 9.77808 20.1697 10.1206 20.1714 10.8181L20.1701 10.8194Z" fill="#252525"/>
<path d="M12.5154 4.51869C12.5242 4.78279 12.5605 5.04815 12.4903 5.30974C12.3914 5.67696 12.1559 5.85429 11.7765 5.84171C11.4095 5.8304 11.2003 5.62917 11.144 5.27955C11.0688 4.81675 11.0876 4.34765 11.1227 3.88233C11.1528 3.48114 11.4095 3.26483 11.7865 3.21955C12.1384 3.17679 12.4553 3.46353 12.5104 3.86598C12.5404 4.07977 12.5154 4.30112 12.5154 4.51869Z" fill="#252525"/>
<path d="M15.5913 4.56396C15.5913 4.78153 15.6126 5.00287 15.5863 5.21793C15.5425 5.58264 15.3483 5.81907 14.9551 5.84297C14.5505 5.86812 14.285 5.68074 14.2162 5.28835C14.131 4.79662 14.1285 4.29105 14.2124 3.80058C14.2788 3.41574 14.5681 3.19691 14.9501 3.2271C15.3032 3.25477 15.5475 3.47862 15.58 3.86346C15.6001 4.09612 15.6026 4.33004 15.6138 4.56396C15.6063 4.56396 15.5976 4.56396 15.59 4.56396H15.5913Z" fill="#252525"/>
<path d="M18.6647 4.54887C18.6647 4.75135 18.6685 4.95508 18.6647 5.15756C18.656 5.56377 18.4456 5.79518 18.046 5.8392C17.659 5.88196 17.3221 5.65307 17.2821 5.25188C17.2357 4.78907 17.2357 4.31495 17.2733 3.85088C17.3059 3.46479 17.6778 3.16925 18.016 3.22207C18.4105 3.28369 18.666 3.50378 18.6672 3.94017C18.6672 4.14265 18.6672 4.34513 18.6672 4.54887C18.6672 4.54887 18.666 4.54887 18.6647 4.54887Z" fill="#252525"/>
</svg>
