<svg width="24" height="24" viewBox="0 0 24 24" fill="none" xmlns="http://www.w3.org/2000/svg">
<g clip-path="url(#clip0_82_323)">
<path fill-rule="evenodd" clip-rule="evenodd" d="M10.6844 5.14286C10.0916 6.16766 8.98354 6.85714 7.71449 6.85714C6.44544 6.85714 5.33743 6.16766 4.74461 5.14286H1.71429C0.767511 5.14286 0 4.37534 0 3.42857C0 2.48181 0.767511 1.71429 1.71429 1.71429H4.74461C5.33743 0.689484 6.44544 0 7.71449 0C8.98354 0 10.0916 0.689484 10.6844 1.71429H18.4286C21.5055 1.71429 24 4.20869 24 7.28571C24 10.3627 21.5055 12.8571 18.4286 12.8571H17.5416C16.9489 13.8824 15.8406 14.5723 14.5712 14.5723C13.3018 14.5723 12.1935 13.8824 11.6008 12.8571H6C4.57983 12.8571 3.42857 14.0084 3.42857 15.4286C3.42857 16.8487 4.57983 18 6 18H6.45938C7.05231 16.9757 8.16007 16.2866 9.42878 16.2866C10.6975 16.2866 11.8053 16.9757 12.3982 18H18.8571V16.2849C18.8571 15.9382 19.0659 15.6256 19.3863 15.493C19.7066 15.3603 20.0753 15.4336 20.3205 15.6788L23.749 19.1074C24.0837 19.4421 24.0837 19.9848 23.749 20.3196L20.3205 23.7482C20.0753 23.9933 19.7066 24.0665 19.3863 23.934C19.0659 23.8013 18.8571 23.4886 18.8571 23.142V21.4286H12.3992C11.8065 22.4539 10.6982 23.1437 9.42878 23.1437C8.15938 23.1437 7.0511 22.4539 6.4584 21.4286H6C2.68629 21.4286 0 18.7423 0 15.4286C0 12.1149 2.68629 9.42857 6 9.42857H11.6018C12.1947 8.40423 13.3025 7.71513 14.5712 7.71513C15.8399 7.71513 16.9477 8.40423 17.5406 9.42857H18.4286C19.6121 9.42857 20.5714 8.46919 20.5714 7.28571C20.5714 6.10224 19.6121 5.14286 18.4286 5.14286H10.6844Z" fill="#0085FF"/>
</g>
<defs>
<clipPath id="clip0_82_323">
<rect width="24" height="24" fill="white"/>
</clipPath>
</defs>
</svg>
