<svg width="131" height="114" viewBox="0 0 131 114" fill="none" xmlns="http://www.w3.org/2000/svg">
<path d="M15.4491 86.625H114.324V93.1875C114.324 97.8288 112.48 102.28 109.198 105.562C105.916 108.844 101.465 110.688 96.824 110.688H32.9491C28.3078 110.688 23.8566 108.844 20.5747 105.562C17.2928 102.28 15.4491 97.8288 15.4491 93.1875V86.625Z" fill="#FFDC99" stroke="#FFA800" stroke-width="5.5" stroke-linecap="round" stroke-linejoin="round"/>
<path d="M102.511 59.9375H113.887C115.647 59.8788 117.4 60.175 119.044 60.8082C120.687 61.4415 122.186 62.3989 123.451 63.6236C124.717 64.8482 125.723 66.3151 126.41 67.9367C127.096 69.5583 127.45 71.3015 127.449 73.0625C127.449 76.6595 126.02 80.1092 123.477 82.6526C120.933 85.1961 117.484 86.625 113.887 86.625H15.8864C14.1254 86.626 12.3823 86.2726 10.7607 85.5858C9.13906 84.899 7.67215 83.8929 6.44748 82.6274C5.22282 81.3619 4.26532 79.8629 3.63206 78.2197C2.9988 76.5765 2.70272 74.8226 2.76142 73.0625C2.7003 71.3224 2.9981 69.5884 3.63607 67.9684C4.27404 66.3484 5.23861 64.877 6.46978 63.6458C7.70095 62.4146 9.17226 61.4501 10.7923 60.8121C12.4124 60.1741 14.1464 59.8764 15.8864 59.9375H54.3865" fill="#FFDC99"/>
<path d="M102.511 59.9375H113.887C115.647 59.8788 117.4 60.175 119.044 60.8082C120.687 61.4415 122.186 62.3989 123.451 63.6236C124.717 64.8482 125.723 66.3151 126.41 67.9367C127.096 69.5583 127.45 71.3015 127.449 73.0625C127.449 76.6595 126.02 80.1092 123.477 82.6526C120.933 85.1961 117.484 86.625 113.887 86.625H15.8864C14.1254 86.626 12.3823 86.2726 10.7607 85.5858C9.13906 84.899 7.67215 83.8929 6.44748 82.6274C5.22282 81.3619 4.26532 79.8629 3.63206 78.2197C2.9988 76.5765 2.70272 74.8226 2.76142 73.0625C2.7003 71.3224 2.9981 69.5884 3.63607 67.9684C4.27404 66.3484 5.23861 64.877 6.46978 63.6458C7.70095 62.4146 9.17226 61.4501 10.7923 60.8121C12.4124 60.1741 14.1464 59.8764 15.8864 59.9375H54.3865" stroke="#FFA800" stroke-width="5.5" stroke-linecap="round" stroke-linejoin="round"/>
<path d="M127.449 51.1875C127.416 53.4955 126.473 55.697 124.824 57.3125C124.057 58.1712 123.111 58.8513 122.053 59.3048C120.995 59.7584 119.85 59.9743 118.699 59.9375H95.9491L81.0741 77L66.199 59.9375H11.0741C9.9447 59.9391 8.82674 59.7105 7.7886 59.2657C6.75047 58.8208 5.81383 58.1691 5.03594 57.3503C4.25805 56.5314 3.65525 55.5627 3.2642 54.5031C2.87316 53.4436 2.70207 52.3154 2.76152 51.1875C2.70207 50.0596 2.87316 48.9315 3.2642 47.8719C3.65525 46.8124 4.25805 45.8436 5.03594 45.0248C5.81383 44.206 6.75047 43.5543 7.7886 43.1094C8.82674 42.6646 9.9447 42.4359 11.0741 42.4375H118.699C121.02 42.4375 123.245 43.3594 124.886 45.0003C126.527 46.6413 127.449 48.8669 127.449 51.1875Z" fill="white" stroke="#FFA800" stroke-width="5.5" stroke-linecap="round" stroke-linejoin="round"/>
<path d="M53.074 3.5H77.1365C87.1153 3.5 96.6853 7.46402 103.741 14.5201C110.797 21.5761 114.762 31.1463 114.762 41.125H15.4491C15.4491 31.1463 19.4131 21.5761 26.4691 14.5201C33.5252 7.46402 43.0952 3.5 53.074 3.5Z" fill="#FFDC99" stroke="#FFA800" stroke-width="5.5" stroke-linecap="round" stroke-linejoin="round"/>
<path d="M40.3865 23.1875L45.6366 28.875" stroke="#FFA800" stroke-width="5.5" stroke-linecap="round" stroke-linejoin="round"/>
<path d="M87.6366 21L93.324 27.125" stroke="#FFA800" stroke-width="5.5" stroke-linecap="round" stroke-linejoin="round"/>
<path d="M61.3866 23.625L67.5116 17.9375" stroke="#FFA800" stroke-width="5.5" stroke-linecap="round" stroke-linejoin="round"/>
</svg>
