<svg width="14" height="14" viewBox="0 0 14 14" fill="none" xmlns="http://www.w3.org/2000/svg">
<g clip-path="url(#clip0_82_1065)">
<path d="M7 13.5C10.5899 13.5 13.5 10.5899 13.5 7C13.5 3.41015 10.5899 0.5 7 0.5C3.41015 0.5 0.5 3.41015 0.5 7C0.5 10.5899 3.41015 13.5 7 13.5Z" stroke="#252525" stroke-linecap="round" stroke-linejoin="round"/>
<path d="M9.45992 4.52232C8.10176 4.52232 7.00076 5.62332 7.00076 6.98148C7.00076 8.33963 8.10176 9.44063 9.45992 9.44063C9.71021 9.44063 9.90136 9.74153 9.71786 9.91176C9.00485 10.5732 8.05003 10.9776 7.00076 10.9776C4.79376 10.9776 3.00464 9.18847 3.00464 6.98148C3.00464 4.77448 4.79376 2.98535 7.00076 2.98535C8.05003 2.98535 9.00485 3.38975 9.71786 4.0512C9.90136 4.22142 9.71021 4.52232 9.45992 4.52232Z" stroke="#252525" stroke-linecap="round" stroke-linejoin="round"/>
</g>
<defs>
<clipPath id="clip0_82_1065">
<rect width="14" height="14" fill="white"/>
</clipPath>
</defs>
</svg>
