<svg width="36" height="36" viewBox="0 0 36 36" fill="none" xmlns="http://www.w3.org/2000/svg">
<path fill-rule="evenodd" clip-rule="evenodd" d="M20.357 1.50093C19.0553 0.19918 16.9447 0.199182 15.643 1.50093L12.4772 4.66675H7.99997C6.15902 4.66675 4.66664 6.15914 4.66664 8.00009V12.4773L1.50085 15.6431C0.1991 16.9448 0.199098 19.0554 1.50085 20.3571L4.66664 23.5229V28.0001C4.66664 29.841 6.15902 31.3334 7.99997 31.3334H12.4772L15.643 34.4992C16.9447 35.801 19.0553 35.801 20.357 34.4992L23.5229 31.3334H28C29.8409 31.3334 31.3333 29.841 31.3333 28.0001V23.523L34.4992 20.3571C35.8009 19.0554 35.8009 16.9448 34.4992 15.6431L31.3333 12.4772V8.00009C31.3333 6.15914 29.8409 4.66675 28 4.66675H23.5229L20.357 1.50093ZM25.4894 15.328C26.1403 14.6772 26.1403 13.6219 25.4894 12.971C24.8385 12.3201 23.7832 12.3201 23.1324 12.971L16.0581 20.0452L13.1119 17.099C12.461 16.4481 11.4057 16.4481 10.7548 17.099C10.104 17.7498 10.104 18.8051 10.7548 19.456L14.7618 23.4629C15.4777 24.1789 16.6385 24.1789 17.3545 23.4629L25.4894 15.328Z" fill="#0085FF"/>
</svg>
