<svg width="24" height="24" viewBox="0 0 24 24" fill="none" xmlns="http://www.w3.org/2000/svg">
<path fill-rule="evenodd" clip-rule="evenodd" d="M7.71429 1.71429C7.71429 0.767511 6.94677 0 6 0C5.05323 0 4.28571 0.767511 4.28571 1.71429V3.42857H2.57143C1.15127 3.42857 0 4.57983 0 6V21.4286C0 22.8487 1.15127 24 2.57143 24H21.4286C22.8487 24 24 22.8487 24 21.4286V6C24 4.57983 22.8487 3.42857 21.4286 3.42857H19.7145V1.71429C19.7145 0.767511 18.947 0 18.0002 0C17.0534 0 16.2859 0.767511 16.2859 1.71429V3.42857H7.71429V1.71429ZM11.9807 8.78587C12.1408 8.7828 12.2986 8.82458 12.4362 8.90649C12.5739 8.98841 12.6858 9.10719 12.7594 9.24943L12.7626 9.25569L14.0387 11.8226L14.0437 11.8237L16.8705 12.2529C17.0302 12.2746 17.1806 12.3409 17.3043 12.4442C17.4295 12.5486 17.5222 12.6865 17.5719 12.8417C17.6217 12.9969 17.6261 13.1631 17.5848 13.3208C17.5437 13.4776 17.4591 13.6195 17.3409 13.7302L15.3515 15.6207C15.3663 15.6553 15.3765 15.6917 15.3818 15.729L15.7803 18.5331C15.8102 18.6907 15.7954 18.8535 15.7373 19.0034C15.6773 19.1582 15.5737 19.2924 15.4389 19.3894C15.3042 19.4866 15.1442 19.5425 14.9783 19.5506C14.8159 19.5585 14.6546 19.5199 14.5133 19.4397L12.0176 18.1185C12.0099 18.1159 12.0017 18.1145 11.9935 18.1145C11.9853 18.1145 11.9772 18.1159 11.9695 18.1185L9.47374 19.4397C9.33243 19.5199 9.17119 19.5585 9.00878 19.5506C8.84287 19.5425 8.68287 19.4866 8.54815 19.3894C8.41342 19.2924 8.30976 19.1582 8.24976 19.0034C8.19094 18.8517 8.17653 18.6864 8.20803 18.5268L8.68109 15.7181C8.68365 15.703 8.68701 15.688 8.69115 15.6732L6.64366 13.7129L6.63506 13.7044C6.52435 13.5922 6.44666 13.4518 6.41049 13.2985C6.37431 13.1451 6.38105 12.9847 6.42996 12.8349C6.47887 12.6852 6.56806 12.5517 6.68777 12.4493C6.80748 12.3468 6.95307 12.2793 7.10861 12.2541L7.11501 12.2531L9.94791 11.8378L9.94997 11.8343L11.2227 9.27401C11.2909 9.13125 11.3973 9.01006 11.5301 8.92392C11.6645 8.83677 11.8206 8.78895 11.9807 8.78587Z" fill="#0085FF"/>
</svg>
