<svg width="22" height="21" viewBox="0 0 22 21" fill="none" xmlns="http://www.w3.org/2000/svg">
<path d="M4.92858 13.7143C6.70378 13.7143 8.14287 12.2752 8.14287 10.5C8.14287 8.72482 6.70378 7.28574 4.92858 7.28574C3.15338 7.28574 1.71429 8.72482 1.71429 10.5C1.71429 12.2752 3.15338 13.7143 4.92858 13.7143Z" stroke="#404040" stroke-width="2" stroke-linecap="round" stroke-linejoin="round"/>
<path d="M17.0714 19.7857C18.8466 19.7857 20.2857 18.3466 20.2857 16.5714C20.2857 14.7963 18.8466 13.3571 17.0714 13.3571C15.2963 13.3571 13.8571 14.7963 13.8571 16.5714C13.8571 18.3466 15.2963 19.7857 17.0714 19.7857Z" stroke="#404040" stroke-width="2" stroke-linecap="round" stroke-linejoin="round"/>
<path d="M17.0714 7.64287C18.8466 7.64287 20.2857 6.20378 20.2857 4.42858C20.2857 2.65338 18.8466 1.21429 17.0714 1.21429C15.2963 1.21429 13.8571 2.65338 13.8571 4.42858C13.8571 6.20378 15.2963 7.64287 17.0714 7.64287Z" stroke="#404040" stroke-width="2" stroke-linecap="round" stroke-linejoin="round"/>
<path d="M7.80002 9.07143L14.2 5.85715" stroke="#404040" stroke-width="2" stroke-linecap="round" stroke-linejoin="round"/>
<path d="M7.80002 11.9286L14.2 15.1429" stroke="#404040" stroke-width="2" stroke-linecap="round" stroke-linejoin="round"/>
</svg>
