<svg width="16" height="16" viewBox="0 0 16 16" fill="none" xmlns="http://www.w3.org/2000/svg">
<g clip-path="url(#clip0_82_651)">
<path d="M7.33331 7.99998C7.33331 8.17679 7.40355 8.34636 7.52858 8.47138C7.6536 8.59641 7.82317 8.66665 7.99998 8.66665C8.17679 8.66665 8.34636 8.59641 8.47138 8.47138C8.59641 8.34636 8.66665 8.17679 8.66665 7.99998C8.66665 7.82317 8.59641 7.6536 8.47138 7.52858C8.34636 7.40355 8.17679 7.33331 7.99998 7.33331C7.82317 7.33331 7.6536 7.40355 7.52858 7.52858C7.40355 7.6536 7.33331 7.82317 7.33331 7.99998Z" stroke="#252525" stroke-linecap="round" stroke-linejoin="round"/>
<path d="M7.33331 12.6667C7.33331 12.8435 7.40355 13.013 7.52858 13.1381C7.6536 13.2631 7.82317 13.3333 7.99998 13.3333C8.17679 13.3333 8.34636 13.2631 8.47138 13.1381C8.59641 13.013 8.66665 12.8435 8.66665 12.6667C8.66665 12.4899 8.59641 12.3203 8.47138 12.1953C8.34636 12.0702 8.17679 12 7.99998 12C7.82317 12 7.6536 12.0702 7.52858 12.1953C7.40355 12.3203 7.33331 12.4899 7.33331 12.6667Z" stroke="#252525" stroke-linecap="round" stroke-linejoin="round"/>
<path d="M7.33331 3.33335C7.33331 3.51016 7.40355 3.67973 7.52858 3.80476C7.6536 3.92978 7.82317 4.00002 7.99998 4.00002C8.17679 4.00002 8.34636 3.92978 8.47138 3.80476C8.59641 3.67973 8.66665 3.51016 8.66665 3.33335C8.66665 3.15654 8.59641 2.98697 8.47138 2.86195C8.34636 2.73693 8.17679 2.66669 7.99998 2.66669C7.82317 2.66669 7.6536 2.73693 7.52858 2.86195C7.40355 2.98697 7.33331 3.15654 7.33331 3.33335Z" stroke="#252525" stroke-linecap="round" stroke-linejoin="round"/>
</g>
<defs>
<clipPath id="clip0_82_651">
<rect width="16" height="16" fill="white"/>
</clipPath>
</defs>
</svg>
