<svg width="16" height="17" viewBox="0 0 16 17" fill="none" xmlns="http://www.w3.org/2000/svg">
<path d="M8.00227 8.78572C7.84447 8.78572 7.71655 8.6578 7.71655 8.50001C7.71655 8.34221 7.84447 8.21429 8.00227 8.21429" stroke="#737373" stroke-linecap="round" stroke-linejoin="round"/>
<path d="M8.00232 8.78572C8.16011 8.78572 8.28803 8.6578 8.28803 8.50001C8.28803 8.34221 8.16011 8.21429 8.00232 8.21429" stroke="#737373" stroke-linecap="round" stroke-linejoin="round"/>
<path d="M4.85944 8.78572C4.70165 8.78572 4.57373 8.6578 4.57373 8.50001C4.57373 8.34221 4.70165 8.21429 4.85944 8.21429" stroke="#737373" stroke-linecap="round" stroke-linejoin="round"/>
<path d="M4.8595 8.78572C5.01729 8.78572 5.14521 8.6578 5.14521 8.50001C5.14521 8.34221 5.01729 8.21429 4.8595 8.21429" stroke="#737373" stroke-linecap="round" stroke-linejoin="round"/>
<path d="M11.1451 8.78572C10.9873 8.78572 10.8594 8.6578 10.8594 8.50001C10.8594 8.34221 10.9873 8.21429 11.1451 8.21429" stroke="#737373" stroke-linecap="round" stroke-linejoin="round"/>
<path d="M11.1451 8.78572C11.3029 8.78572 11.4309 8.6578 11.4309 8.50001C11.4309 8.34221 11.3029 8.21429 11.1451 8.21429" stroke="#737373" stroke-linecap="round" stroke-linejoin="round"/>
<path d="M7.99792 1.14063C6.6667 1.14104 5.3605 1.50253 4.21847 2.18659C3.07645 2.87066 2.14135 3.85168 1.51278 5.02517C0.884204 6.19865 0.585701 7.52066 0.649059 8.85038C0.712415 10.1801 1.13526 11.4677 1.87256 12.5761L0.638428 15.8597L4.77106 15.1123C5.7662 15.5986 6.85824 15.8541 7.96582 15.8595C9.07339 15.865 10.1679 15.6205 11.1678 15.144C12.1677 14.6677 13.0472 13.9717 13.7406 13.108C14.4341 12.2445 14.9238 11.2354 15.173 10.1562C15.4222 9.07706 15.4247 7.95554 15.1802 6.87529C14.9356 5.79503 14.4504 4.7839 13.7607 3.91727C13.071 3.05063 12.1945 2.35086 11.1968 1.87009C10.199 1.38932 9.10551 1.13997 7.99792 1.14063Z" stroke="#737373" stroke-linecap="round" stroke-linejoin="round"/>
</svg>
