<svg width="12" height="12" viewBox="0 0 12 12" fill="none" xmlns="http://www.w3.org/2000/svg">
<path d="M1.2857 1.71429C1.05837 1.71429 0.840355 1.8046 0.679609 1.96534C0.518864 2.12609 0.428558 2.34411 0.428558 2.57144V10.7143C0.428558 10.9416 0.518864 11.1597 0.679609 11.3204C0.840355 11.4811 1.05837 11.5714 1.2857 11.5714H10.7143C10.9416 11.5714 11.1596 11.4811 11.3204 11.3204C11.4811 11.1597 11.5714 10.9416 11.5714 10.7143V2.57144C11.5714 2.34411 11.4811 2.12609 11.3204 1.96534C11.1596 1.8046 10.9416 1.71429 10.7143 1.71429H8.99999" stroke="#737373" stroke-linecap="round" stroke-linejoin="round"/>
<path d="M0.428558 4.71429H11.5714" stroke="#737373" stroke-linecap="round" stroke-linejoin="round"/>
<path d="M3 0.428589V3.00002" stroke="#737373" stroke-linecap="round" stroke-linejoin="round"/>
<path d="M9 0.428589V3.00002" stroke="#737373" stroke-linecap="round" stroke-linejoin="round"/>
<path d="M3 1.71429H7.28571" stroke="#737373" stroke-linecap="round" stroke-linejoin="round"/>
</svg>
