<svg width="14" height="14" viewBox="0 0 14 14" fill="none" xmlns="http://www.w3.org/2000/svg">
<g clip-path="url(#clip0_82_1054)">
<path d="M7.36 13.43C7.12832 13.5194 6.87168 13.5194 6.64 13.43C4.83069 12.7206 3.27713 11.4824 2.18188 9.877C1.08664 8.2716 0.500536 6.37342 0.5 4.43V1.5C0.5 1.23478 0.605357 0.98043 0.792893 0.792893C0.98043 0.605357 1.23478 0.5 1.5 0.5H12.5C12.7652 0.5 13.0196 0.605357 13.2071 0.792893C13.3946 0.98043 13.5 1.23478 13.5 1.5V4.42C13.5015 6.36513 12.9163 8.26549 11.8209 9.87287C10.7256 11.4803 9.17089 12.7199 7.36 13.43Z" stroke="#252525" stroke-linecap="round" stroke-linejoin="round"/>
<path d="M2.83655 10.7304C3.73276 9.38584 5.26295 8.5 7.00005 8.5C8.73714 8.5 10.2673 9.38583 11.1635 10.7304" stroke="#252525" stroke-linecap="round" stroke-linejoin="round"/>
<path d="M7 7C8.24264 7 9.25 5.99264 9.25 4.75C9.25 3.50736 8.24264 2.5 7 2.5C5.75736 2.5 4.75 3.50736 4.75 4.75C4.75 5.99264 5.75736 7 7 7Z" stroke="#252525" stroke-linecap="round" stroke-linejoin="round"/>
</g>
<defs>
<clipPath id="clip0_82_1054">
<rect width="14" height="14" fill="white"/>
</clipPath>
</defs>
</svg>
