<svg width="24" height="24" viewBox="0 0 24 24" fill="none" xmlns="http://www.w3.org/2000/svg">
<path d="M3.677 17.25H20.627V18.375C20.627 19.1706 20.3109 19.9337 19.7483 20.4963C19.1857 21.0589 18.4226 21.375 17.627 21.375H6.677C5.88135 21.375 5.11829 21.0589 4.55568 20.4963C3.99307 19.9337 3.677 19.1706 3.677 18.375V17.25Z" stroke="#252525" stroke-width="1.4" stroke-linecap="round" stroke-linejoin="round"/>
<path d="M18.6019 12.675H20.552C20.8537 12.6649 21.1543 12.7157 21.436 12.8243C21.7177 12.9328 21.9747 13.0969 22.1917 13.3069C22.4086 13.5168 22.5811 13.7683 22.6988 14.0463C22.8165 14.3243 22.8771 14.6231 22.877 14.925C22.877 15.5416 22.632 16.133 22.196 16.569C21.76 17.005 21.1686 17.25 20.552 17.25H3.75195C3.45006 17.2502 3.15124 17.1896 2.87325 17.0718C2.59526 16.9541 2.34379 16.7816 2.13385 16.5647C1.9239 16.3477 1.75976 16.0908 1.6512 15.8091C1.54265 15.5274 1.49189 15.2267 1.50195 14.925C1.49147 14.6267 1.54253 14.3294 1.65189 14.0517C1.76126 13.774 1.92661 13.5218 2.13767 13.3107C2.34873 13.0996 2.60095 12.9343 2.87867 12.8249C3.1564 12.7155 3.45365 12.6645 3.75195 12.675H10.352" stroke="#252525" stroke-width="1.4" stroke-linecap="round" stroke-linejoin="round"/>
<path d="M22.877 11.175C22.8713 11.5706 22.7096 11.9481 22.427 12.225C22.2955 12.3722 22.1333 12.4888 21.9519 12.5665C21.7705 12.6443 21.5742 12.6813 21.377 12.675H17.477L14.927 15.6L12.377 12.675H2.92699C2.73338 12.6753 2.54173 12.6361 2.36376 12.5598C2.18579 12.4836 2.02523 12.3718 1.89187 12.2315C1.75852 12.0911 1.65518 11.925 1.58815 11.7434C1.52111 11.5617 1.49178 11.3683 1.50197 11.175C1.49178 10.9816 1.52111 10.7882 1.58815 10.6066C1.65518 10.425 1.75852 10.2589 1.89187 10.1185C2.02523 9.97816 2.18579 9.86643 2.36376 9.79017C2.54173 9.71392 2.73338 9.67472 2.92699 9.67499H21.377C21.7748 9.67499 22.1564 9.83302 22.4377 10.1143C22.719 10.3956 22.877 10.7772 22.877 11.175Z" stroke="#252525" stroke-width="1.4" stroke-linecap="round" stroke-linejoin="round"/>
<path d="M10.127 3H14.252C15.9626 3 17.6032 3.67955 18.8128 4.88916C20.0224 6.09877 20.702 7.73936 20.702 9.45H3.677C3.677 7.73936 4.35654 6.09877 5.56615 4.88916C6.77576 3.67955 8.41634 3 10.127 3Z" stroke="#252525" stroke-width="1.4" stroke-linecap="round" stroke-linejoin="round"/>
<path d="M7.95197 6.375L8.85197 7.35" stroke="#252525" stroke-width="1.4" stroke-linecap="round" stroke-linejoin="round"/>
<path d="M16.052 6L17.027 7.05" stroke="#252525" stroke-width="1.4" stroke-linecap="round" stroke-linejoin="round"/>
<path d="M11.552 6.45001L12.602 5.47501" stroke="#252525" stroke-width="1.4" stroke-linecap="round" stroke-linejoin="round"/>
</svg>
