<svg width="14" height="14" viewBox="0 0 14 14" fill="none" xmlns="http://www.w3.org/2000/svg">
<path d="M12.5 13.5H3C2.60218 13.5 2.22064 13.342 1.93934 13.0607C1.65804 12.7794 1.5 12.3978 1.5 12C1.5 11.6022 1.65804 11.2206 1.93934 10.9393C2.22064 10.658 2.60218 10.5 3 10.5H11.5C11.7652 10.5 12.0196 10.3946 12.2071 10.2071C12.3946 10.0196 12.5 9.76522 12.5 9.5V1.5C12.5 1.23478 12.3946 0.98043 12.2071 0.792893C12.0196 0.605357 11.7652 0.5 11.5 0.5H3C2.60901 0.499861 2.23342 0.652394 1.95324 0.925105C1.67305 1.19782 1.51043 1.56915 1.5 1.96V11.96" stroke="#252525" stroke-linecap="round" stroke-linejoin="round"/>
<path d="M11.5 10.5V13.5" stroke="#252525" stroke-linecap="round" stroke-linejoin="round"/>
<path d="M8.05149 5.00195H10.3665L7.9068 8.47454H10.5112" stroke="#252525" stroke-linecap="round" stroke-linejoin="round"/>
<path d="M3.51172 5.98553L4.57774 2.78747C4.63239 2.62352 4.78581 2.51294 4.95863 2.51294C5.13145 2.51294 5.28488 2.62352 5.33952 2.78747L6.40554 5.98553M3.89756 4.828H6.0197" stroke="#252525" stroke-linecap="round" stroke-linejoin="round"/>
</svg>
