<svg width="23" height="24" viewBox="0 0 23 24" fill="none" xmlns="http://www.w3.org/2000/svg">
<path fill-rule="evenodd" clip-rule="evenodd" d="M9.02619 1.18154L8.23234 3.23078L5.50003 4.78154L3.32156 4.44922C2.95884 4.39999 2.58965 4.45971 2.26092 4.62079C1.9322 4.78186 1.65878 5.03702 1.47542 5.35385L0.736954 6.64615C0.547726 6.96802 0.460543 7.33971 0.48691 7.71216C0.513277 8.08461 0.651958 8.4403 0.884647 8.73232L2.26927 10.4492V13.5508L0.921569 15.2677C0.68888 15.5597 0.550202 15.9154 0.523834 16.2878C0.497465 16.6603 0.584648 17.032 0.773876 17.3539L1.51234 18.6461C1.6957 18.9629 1.96913 19.2182 2.29784 19.3791C2.62656 19.5403 2.99575 19.5999 3.35849 19.5507L5.53695 19.2185L8.23234 20.7693L9.02619 22.8185C9.16006 23.1655 9.3956 23.4639 9.70196 23.6746C10.0083 23.8855 10.3712 23.999 10.7431 24H12.2939C12.6658 23.999 13.0287 23.8855 13.335 23.6746C13.6414 23.4639 13.8769 23.1655 14.0108 22.8185L14.8046 20.7693L17.5 19.2185L19.6786 19.5507C20.0413 19.5999 20.4104 19.5403 20.7392 19.3791C21.0678 19.2182 21.3412 18.9629 21.5247 18.6461L22.2632 17.3539C22.4523 17.032 22.5395 16.6603 22.5131 16.2878C22.4867 15.9154 22.348 15.5597 22.1154 15.2677L20.7308 13.5508V10.4492L22.0786 8.73232C22.3112 8.4403 22.4499 8.08461 22.4763 7.71216C22.5027 7.33971 22.4154 6.96802 22.2262 6.64615L21.4876 5.35385C21.3044 5.03702 21.031 4.78186 20.7022 4.62079C20.3735 4.45971 20.0043 4.39999 19.6415 4.44922L17.4632 4.78154L14.7677 3.23078L13.9739 1.18154C13.84 0.834579 13.6044 0.536143 13.2981 0.325315C12.9917 0.114487 12.6288 0.00109857 12.257 0H10.7431C10.3712 0.00109857 10.0083 0.114487 9.70196 0.325315C9.3956 0.536143 9.16006 0.834579 9.02619 1.18154ZM11.5 15.8571C13.6303 15.8571 15.3572 14.1302 15.3572 12C15.3572 9.86976 13.6303 8.14286 11.5 8.14286C9.3698 8.14286 7.6429 9.86976 7.6429 12C7.6429 14.1302 9.3698 15.8571 11.5 15.8571Z" fill="#0085FF"/>
</svg>
