<svg width="48" height="47" viewBox="0 0 48 47" fill="none" xmlns="http://www.w3.org/2000/svg">
<path d="M13.7324 13.47C11.6112 13.47 9.48848 13.47 7.36725 13.47C7.21902 13.47 7.07078 13.4775 6.92403 13.4656C6.28218 13.4137 5.81969 12.9779 5.82414 12.4368C5.82858 11.8661 6.31627 11.414 6.97888 11.4126C10.9175 11.4051 14.856 11.4037 18.7946 11.4096C19.4587 11.4096 19.8233 11.8083 19.9078 12.4606C20.2384 15.0398 20.9692 17.4442 23.0726 19.1859C24.6158 20.4637 26.4553 20.9218 28.4076 21.0507C28.7574 21.0744 28.8093 20.9232 28.7722 20.6253C28.2727 16.5548 29.4052 12.932 31.8021 9.66339C33.0473 7.96611 34.3103 6.28069 35.5673 4.59231C35.754 4.34031 35.9364 4.0646 36.264 3.98751C36.7072 3.88227 37.1267 3.9386 37.395 4.35365C37.6752 4.7865 37.6366 5.22082 37.3268 5.63736C36.0224 7.38504 34.7179 9.13123 33.4223 10.8848C31.5902 13.3678 30.6385 16.1457 30.6726 19.2423C30.677 19.6647 30.7452 20.0872 30.7778 20.5097C30.7941 20.7246 30.892 20.8358 31.1143 20.8728C31.5338 20.944 31.7754 21.233 31.9667 21.5947C32.2691 22.1654 32.5937 22.7243 32.9094 23.2891C33.0177 23.4832 33.0933 23.627 33.4105 23.544C33.8033 23.4417 34.1694 23.6537 34.3992 24.0035C34.6334 24.3563 34.6705 24.7803 34.4051 25.0901C34.1339 25.4058 34.2065 25.6223 34.3933 25.9039C34.5356 26.1188 34.663 26.3471 34.7698 26.5813C34.8943 26.857 35.0633 26.9875 35.3894 27.026C36.1113 27.1105 36.4878 27.8132 36.1513 28.4669C36.012 28.7381 36.055 28.8923 36.2002 29.1072C36.3648 29.3518 36.5071 29.6127 36.636 29.8781C36.7932 30.2042 36.9622 30.425 37.3876 30.4873C38.0858 30.5896 38.3956 31.2299 38.0976 31.8629C37.9672 32.1386 37.9998 32.3328 38.1436 32.5759C38.5572 33.2756 39.0211 33.9575 39.3354 34.7001C40.0247 36.3322 41.3573 37.0837 42.9567 37.4825C44.03 37.7493 45.0913 38.0131 46.0667 38.572C48.7927 40.1344 48.7468 43.2473 47.1992 44.8941C46.1482 46.0118 44.7696 46.4402 43.2947 46.4565C39.3947 46.4995 35.4932 46.4758 31.5916 46.4773C28.2075 46.4773 24.8233 46.4773 21.4406 46.4728C20.861 46.4728 20.4593 46.1808 20.3629 45.7169C20.2577 45.2143 20.5067 44.7548 20.9751 44.5399C21.1738 44.4495 21.3739 44.4776 21.574 44.4761C23.9591 44.4717 26.3442 44.4732 28.7307 44.4702C28.9234 44.4702 29.1176 44.4524 29.4823 44.4346C28.369 43.6623 27.3951 42.9834 26.4168 42.3104C19.936 37.853 13.4523 33.3986 6.97295 28.9382C5.69073 28.0548 5.44169 26.5991 6.423 25.3851C7.4384 24.1295 8.16772 22.8369 8.46122 21.1634C8.98893 18.1557 10.7559 15.8136 13.2077 14.0007C13.3974 13.8599 13.5886 13.7191 13.7784 13.5783C13.7665 13.5427 13.7532 13.5071 13.7413 13.4715L13.7324 13.47ZM45.7495 43.4311C45.5419 43.308 45.3566 43.3614 45.1802 43.357C43.3881 43.3051 41.5974 43.4133 39.8038 43.2754C35.9601 42.979 32.4618 41.7101 29.3311 39.491C25.6564 36.8851 22.035 34.205 18.3899 31.5546C15.492 29.4482 12.5925 27.3433 9.70342 25.225C9.39806 25.0012 9.22314 24.9804 9.00227 25.3154C8.73842 25.7156 8.43454 26.0907 8.12621 26.4583C7.80306 26.8437 7.84605 27.0972 8.28037 27.3922C10.7722 29.0806 13.2462 30.7941 15.7247 32.5003C20.3926 35.7155 25.0723 38.9114 29.718 42.1592C31.0284 43.0753 32.3921 43.7216 33.9915 43.9558C36.1899 44.279 38.3971 44.4139 40.6117 44.4613C41.6982 44.485 42.7907 44.5488 43.8758 44.3664C44.5888 44.2464 45.2514 44.0374 45.748 43.4311H45.7495ZM21.3339 28.7485C20.8728 28.7604 20.5601 28.6507 20.3422 28.3231C19.9064 27.6634 20.2058 26.9741 21.0596 26.7251C22.5049 26.3041 23.9531 25.8891 25.4044 25.4874C25.7512 25.391 25.852 25.2754 25.6534 24.9315C25.2102 24.1651 24.7862 23.3869 24.383 22.5983C24.2289 22.2989 24.0199 22.1047 23.7219 21.9713C22.9778 21.6362 22.3003 21.193 21.6792 20.6623C19.6929 18.968 18.6508 16.749 18.1468 14.2468C18.049 13.765 17.9052 13.7428 17.5035 13.9088C16.7682 14.2127 16.0627 14.5685 15.3615 14.942C14.9983 15.1347 14.9138 15.2948 15.2207 15.6283C15.7232 16.1723 16.1249 16.7979 16.4866 17.4412C18.3128 20.689 18.5856 23.9517 16.5414 27.2187C16.3754 27.4841 16.3917 27.5938 16.6452 27.7746C18.0134 28.75 19.3712 29.7402 20.7216 30.7408C20.9544 30.9127 21.1471 30.9453 21.4302 30.8623C23.335 30.305 25.2487 29.7713 27.158 29.2273C27.865 29.0257 27.8636 29.0213 27.5033 28.3512C27.364 28.0918 27.2084 27.8384 27.0913 27.5686C26.9578 27.2662 26.7992 27.1669 26.4539 27.2854C25.7764 27.5182 25.0797 27.696 24.389 27.8902C23.3454 28.1852 22.2989 28.4772 21.3339 28.747V28.7485ZM27.4752 35.5347C27.4559 35.714 27.5938 35.7377 27.6738 35.7956C28.8567 36.6479 29.9996 37.5566 31.2359 38.3318C33.9856 40.0558 36.9681 41.0682 40.2203 41.2669C41.9947 41.3751 43.7676 41.2995 45.5405 41.3054C45.662 41.3054 45.8206 41.4018 45.9036 41.2654C46.0104 41.089 45.8117 41.0015 45.7272 40.9081C44.9935 40.1003 43.9929 39.832 42.9864 39.5889C41.4447 39.2168 39.9906 38.6698 38.8166 37.5551C38.6076 37.3579 38.4119 37.3787 38.1614 37.4276C34.8172 38.0769 32.1119 36.7961 30.4725 33.8018C29.9937 32.9272 29.503 32.0601 29.0479 31.1751C28.9071 30.9009 28.7604 30.852 28.4847 30.9379C27.659 31.1959 26.8289 31.436 25.9988 31.6761C25.0857 31.94 24.171 32.1964 23.1304 32.4929C23.8168 32.991 24.4023 33.3986 24.9656 33.8374C25.1835 34.0064 25.3703 34.0138 25.6208 33.9382C26.3249 33.7247 27.032 33.5231 27.7465 33.3512C28.2964 33.2178 28.7885 33.5231 28.959 34.0508C29.1102 34.5148 28.8404 35.0559 28.3349 35.2575C28.0518 35.3701 27.7539 35.4457 27.4737 35.5347H27.4752ZM15.9352 22.4753C15.9085 22.1447 15.9026 21.8126 15.8522 21.4865C15.5824 19.7403 14.736 18.2728 13.6613 16.9061C13.39 16.5607 13.224 16.54 12.9142 16.872C11.337 18.5604 10.4668 20.5616 10.1748 22.8355C10.1466 23.0504 10.2637 23.1334 10.3986 23.2312C11.7268 24.1948 13.058 25.1524 14.3787 26.1277C14.6248 26.3101 14.7345 26.2686 14.8886 26.0225C15.5661 24.9345 15.9396 23.7649 15.9367 22.4738L15.9352 22.4753ZM26.8659 22.9348C28.04 25.0931 29.1532 27.152 30.2813 29.2021C31.0995 30.6904 31.817 32.2379 32.7597 33.6506C33.7736 35.1715 35.9186 35.9468 37.4113 35.4027C37.1578 34.9506 36.9029 34.5044 36.6553 34.0538C36.2185 33.2573 35.5722 32.9707 34.7164 33.194C34.5934 33.2267 34.4644 33.2519 34.3384 33.2578C33.8211 33.2785 33.4994 32.9969 33.3482 32.5359C33.194 32.063 33.412 31.5961 33.8611 31.3708C34.0242 31.2892 34.202 31.2136 34.3799 31.1899C34.8498 31.1262 34.9388 30.9824 34.6808 30.5332C34.0449 29.4304 34.0701 29.4156 32.8753 29.7328C32.1905 29.9136 31.6435 29.6394 31.476 29.0316C31.3307 28.5024 31.6598 28.0133 32.3061 27.7983C32.7637 27.6461 32.8788 27.362 32.6515 26.946C32.6426 26.9297 32.6367 26.9119 32.6278 26.8971C32.1564 26.0284 32.152 26.0151 31.1914 26.3086C30.7408 26.4464 30.348 26.4035 30.0248 26.064C29.4956 25.5081 29.7417 24.6721 30.4829 24.3697C30.6563 24.2985 30.9187 24.3712 31.0017 24.1281C31.0684 23.9309 30.431 23.0148 30.2264 23.0237C29.1399 23.0726 28.0533 23.1008 26.8674 22.9363L26.8659 22.9348Z" fill="#252525"/>
<path d="M23.5514 0.74118C24.2689 0.748592 24.758 1.39934 24.4868 2.0738C23.5811 4.32696 22.6502 6.56974 21.7118 8.80807C21.4687 9.38915 20.9306 9.59816 20.3985 9.3847C19.8589 9.16828 19.6292 8.61833 19.8737 8.00612C20.5171 6.40075 21.1797 4.80427 21.8378 3.20483C22.0824 2.60893 22.3285 2.01451 22.582 1.42306C22.7628 1.00059 23.0548 0.723392 23.5514 0.742663V0.74118Z" fill="#252525"/>
<path d="M8.39007 35.594C9.46032 35.594 10.5306 35.588 11.6008 35.5969C12.2012 35.6014 12.6355 36.0179 12.6533 36.5738C12.6696 37.1015 12.2071 37.5862 11.6275 37.5892C9.46922 37.5996 7.30945 37.5996 5.14968 37.5892C4.54637 37.5862 4.14169 37.1519 4.14762 36.5753C4.15355 35.9986 4.56119 35.5999 5.17784 35.594C6.24809 35.5851 7.31834 35.591 8.38859 35.591C8.38859 35.591 8.38859 35.5925 8.38859 35.594H8.39007Z" fill="#252525"/>
<path d="M3.53837 17.96C4.29436 17.96 5.05183 17.9571 5.80783 17.96C6.60384 17.9645 7.04558 18.3321 7.0441 18.9784C7.0441 19.6395 6.63349 19.9864 5.80931 19.9923C4.25878 20.0012 2.70974 20.0027 1.15921 19.9938C0.425453 19.9894 -0.0118372 19.5817 2.15554e-05 18.9517C0.0118803 18.3558 0.465476 17.963 1.15773 17.9585C1.95078 17.9541 2.74383 17.9585 3.53837 17.9585V17.96Z" fill="#252525"/>
</svg>
